<?xml version="1.0" encoding="UTF-8"?>
<svg width="24px" height="24px" viewBox="0 0 24 24" version="1.1" xmlns="http://www.w3.org/2000/svg">
    <g stroke="none" stroke-width="1" fill="none" fill-rule="evenodd">
        <path d="M8.1,13.34 L3.91,9.16 C2.35,7.59 2.35,5.06 3.91,3.5 C5.48,1.93 8.01,1.93 9.57,3.5 L13.75,7.68 L8.1,13.34 Z M13.89,8.31 L9.71,4.13 C8.94,3.36 7.67,3.36 6.9,4.13 C6.13,4.9 6.13,6.17 6.9,6.94 L11.08,11.12 L13.89,8.31 Z M20.44,16.89 L18.75,16.04 C18.87,15.37 18.64,14.61 18.07,14.05 C17.28,13.26 16.04,13.21 15.24,14 L11.07,10.18 L13.89,7.36 L17.71,11.18 C18.5,10.38 18.45,9.14 17.66,8.35 C17.1,7.78 16.34,7.55 15.67,7.67 L14.82,5.98 C15.69,5.52 16.75,5.56 17.59,6.09 C18.43,6.62 18.88,7.5 18.9,8.4 L21.29,10.79 C22.07,11.57 22.07,12.86 21.29,13.64 L19.59,15.34 C19.87,15.73 20.03,16.21 20.03,16.7 C20.03,17.92 19.04,18.9 17.83,18.9 C16.61,18.9 15.63,17.92 15.63,16.7 C15.63,15.48 16.61,14.5 17.83,14.5 C18.32,14.5 18.8,14.66 19.19,14.94 L20.44,13.69 C20.66,13.47 20.66,13.12 20.44,12.9 L17.45,9.91 C17.45,9.91 17.45,9.91 17.45,9.91 C16.88,10.59 16.96,11.61 17.62,12.26 C18.26,12.9 19.16,13 19.84,12.51 L20.44,16.89 Z M4,21 L4,15 C4,13.9 4.9,13 6,13 L11.11,13 C12.37,13 13.45,13.95 13.6,15.2 C13.75,16.45 12.87,17.6 11.63,17.9 C12.08,18.24 12.4,18.73 12.53,19.28 L4,21 Z M6,19 L10.97,17.68 C10.58,17.47 10.31,17.06 10.31,16.58 C10.31,15.89 10.86,15.33 11.56,15.33 C12.25,15.33 12.81,15.89 12.81,16.58 C12.81,17.17 12.39,17.66 11.84,17.8 L11.51,19 L6,19 Z" fill="#000000"></path>
    </g>
</svg>